<svg width="665" height="264" viewBox="0 0 665 264" fill="none" xmlns="http://www.w3.org/2000/svg">
<path d="M56 146.991C91.5 137.991 49 103.991 36 152.491" stroke="white" stroke-width="6" stroke-linecap="round"/>
<line x1="89.3173" y1="55.2213" x2="56.2308" y2="93.6732" stroke="white" stroke-width="6" stroke-linecap="round"/>
<line x1="144.178" y1="87.7278" x2="175.737" y2="132.812" stroke="white" stroke-width="6" stroke-linecap="round"/>
<line x1="126.186" y1="86.6814" x2="165.691" y2="141.805" stroke="white" stroke-width="6" stroke-linecap="round"/>
<line x1="155.295" y1="150.758" x2="173.768" y2="134.695" stroke="white" stroke-width="6" stroke-linecap="round"/>
<line x1="154.866" y1="150.037" x2="138.046" y2="123.125" stroke="white" stroke-width="6" stroke-linecap="round"/>
<line x1="133.676" y1="150.354" x2="128.364" y2="104.315" stroke="white" stroke-width="6" stroke-linecap="round"/>
<line x1="88.242" y1="125.755" x2="120.764" y2="96.7485" stroke="white" stroke-width="6" stroke-linecap="round"/>
<line x1="87.83" y1="126.209" x2="78.2181" y2="112.161" stroke="white" stroke-width="6" stroke-linecap="round"/>
<line x1="172.51" y1="37.2048" x2="129.214" y2="71.4806" stroke="white" stroke-width="6" stroke-linecap="round"/>
<line x1="120.379" y1="79.1875" x2="77.0117" y2="111.375" stroke="white" stroke-width="6" stroke-linecap="round"/>
<line x1="66.2093" y1="10.5211" x2="114.531" y2="72.7812" stroke="white" stroke-width="6" stroke-linecap="round"/>
<line x1="52.9901" y1="18.865" x2="78.8745" y2="3.00042" stroke="white" stroke-width="6" stroke-linecap="round"/>
<line x1="79.1964" y1="3.61553" x2="115.625" y2="52.7942" stroke="white" stroke-width="6" stroke-linecap="round"/>
<line x1="166.531" y1="23.2072" x2="126.217" y2="55.4591" stroke="white" stroke-width="6" stroke-linecap="round"/>
<line x1="167.16" y1="23.8226" x2="181.832" y2="45.8303" stroke="white" stroke-width="6" stroke-linecap="round"/>
<line x1="181.666" y1="46.22" x2="145.229" y2="77.3244" stroke="white" stroke-width="6" stroke-linecap="round"/>
<line x1="53.2118" y1="19.5011" x2="78.5105" y2="51.7787" stroke="white" stroke-width="6" stroke-linecap="round"/>
<ellipse cx="123.476" cy="76.7813" rx="4.07" ry="5.54" transform="rotate(-34.0884 123.476 76.7813)" fill="white"/>
<path d="M92 89.9905C72 88.9905 44 91.9905 54 106.491" stroke="white" stroke-width="6" stroke-linecap="round"/>
<path d="M21.5 157.991C31.6526 157.991 40 166.432 40 176.991C40 187.549 31.6526 195.991 21.5 195.991C11.3474 195.991 3 187.549 3 176.991C3 166.432 11.3474 157.991 21.5 157.991Z" stroke="white" stroke-width="6"/>
<path d="M45.5 191.491C54.2741 191.491 61.5 198.815 61.5 207.991C61.5 217.167 54.2741 224.491 45.5 224.491C36.7259 224.491 29.5 217.167 29.5 207.991C29.5 198.815 36.7259 191.491 45.5 191.491Z" stroke="white" stroke-width="5"/>
<path d="M76.5 186.491C83.6055 186.491 89.5 192.459 89.5 199.991C89.5 207.522 83.6055 213.491 76.5 213.491C69.3945 213.491 63.5 207.522 63.5 199.991C63.5 192.459 69.3945 186.491 76.5 186.491Z" stroke="white" stroke-width="5"/>
<path d="M70.5 217.491C77.6055 217.491 83.5 223.459 83.5 230.991C83.5 238.522 77.6055 244.491 70.5 244.491C63.3945 244.491 57.5 238.522 57.5 230.991C57.5 223.459 63.3945 217.491 70.5 217.491Z" stroke="white" stroke-width="5"/>
<path d="M57 148.991C68.0457 148.991 77 158.169 77 169.491C77 180.812 68.0457 189.991 57 189.991C51.3932 189.991 46.3267 187.624 42.6953 183.815L48.2148 182.051C50.6984 183.906 53.7428 184.991 57 184.991C65.1686 184.991 72 178.168 72 169.491C72 160.813 65.1686 153.991 57 153.991C51.2631 153.991 46.1845 157.355 43.6699 162.365L38.168 162.574C40.9365 154.655 48.3225 148.991 57 148.991Z" fill="white"/>
<path d="M80.7363 177.754C82.511 178.551 84.463 178.991 86.5 178.991C88.0968 178.991 89.641 178.72 91.0889 178.219C91.2235 179.93 91.5111 181.595 91.9385 183.201C90.2121 183.714 88.3877 183.991 86.5 183.991C81.8335 183.991 77.5507 182.308 74.1943 179.504L80.7363 177.754ZM86.5 143.991C93.4203 143.991 99.498 147.688 102.959 153.262C101.557 154.198 100.246 155.27 99.0459 156.46C96.5154 151.964 91.7964 148.991 86.5 148.991C82.7284 148.991 79.25 150.499 76.6455 152.991H70.2129C73.701 147.569 79.6927 143.991 86.5 143.991Z" fill="white"/>
<path d="M94.345 177.541C94.345 172.94 95.3723 168.831 97.427 165.213C99.5263 161.55 102.363 158.714 105.936 156.704C109.554 154.649 113.596 153.622 118.063 153.622C123.289 153.622 127.867 154.962 131.798 157.642C135.729 160.322 138.476 164.029 140.039 168.764H129.252C128.18 166.53 126.661 164.855 124.696 163.739C122.775 162.622 120.542 162.064 117.996 162.064C115.271 162.064 112.837 162.711 110.693 164.007C108.594 165.257 106.941 167.044 105.735 169.367C104.574 171.689 103.993 174.414 103.993 177.541C103.993 180.623 104.574 183.347 105.735 185.715C106.941 188.037 108.594 189.846 110.693 191.142C112.837 192.392 115.271 193.018 117.996 193.018C120.542 193.018 122.775 192.459 124.696 191.343C126.661 190.181 128.18 188.484 129.252 186.251H140.039C138.476 191.03 135.729 194.76 131.798 197.44C127.912 200.075 123.334 201.393 118.063 201.393C113.596 201.393 109.554 200.388 105.936 198.378C102.363 196.323 99.5263 193.487 97.427 189.869C95.3723 186.251 94.345 182.141 94.345 177.541ZM164.533 201.594C160.959 201.594 157.743 200.812 154.885 199.249C152.026 197.641 149.77 195.385 148.118 192.482C146.51 189.578 145.706 186.228 145.706 182.432C145.706 178.635 146.532 175.285 148.185 172.382C149.882 169.478 152.182 167.245 155.086 165.682C157.989 164.074 161.227 163.27 164.801 163.27C168.374 163.27 171.612 164.074 174.516 165.682C177.419 167.245 179.697 169.478 181.35 172.382C183.047 175.285 183.896 178.635 183.896 182.432C183.896 186.228 183.025 189.578 181.283 192.482C179.585 195.385 177.263 197.641 174.315 199.249C171.411 200.812 168.151 201.594 164.533 201.594ZM164.533 193.42C166.23 193.42 167.816 193.018 169.29 192.214C170.808 191.365 172.014 190.114 172.908 188.462C173.801 186.809 174.248 184.799 174.248 182.432C174.248 178.903 173.31 176.201 171.434 174.325C169.602 172.404 167.347 171.444 164.667 171.444C161.987 171.444 159.731 172.404 157.9 174.325C156.113 176.201 155.22 178.903 155.22 182.432C155.22 185.96 156.091 188.685 157.833 190.606C159.619 192.482 161.853 193.42 164.533 193.42ZM211.345 163.337C215.767 163.337 219.341 164.744 222.065 167.558C224.79 170.327 226.152 174.213 226.152 179.216V200.991H216.772V180.489C216.772 177.541 216.035 175.285 214.561 173.722C213.087 172.114 211.077 171.31 208.531 171.31C205.941 171.31 203.886 172.114 202.367 173.722C200.893 175.285 200.156 177.541 200.156 180.489V200.991H190.776V163.873H200.156V168.496C201.407 166.888 202.993 165.637 204.913 164.744C206.879 163.806 209.023 163.337 211.345 163.337ZM245.993 171.578V189.534C245.993 190.784 246.284 191.7 246.864 192.281C247.49 192.817 248.517 193.085 249.946 193.085H254.301V200.991H248.405C240.499 200.991 236.546 197.149 236.546 189.467V171.578H232.124V163.873H236.546V154.694H245.993V163.873H254.301V171.578H245.993ZM265.805 159.451C264.152 159.451 262.767 158.937 261.651 157.91C260.579 156.838 260.043 155.52 260.043 153.957C260.043 152.393 260.579 151.098 261.651 150.071C262.767 148.999 264.152 148.463 265.805 148.463C267.457 148.463 268.82 148.999 269.892 150.071C271.008 151.098 271.567 152.393 271.567 153.957C271.567 155.52 271.008 156.838 269.892 157.91C268.82 158.937 267.457 159.451 265.805 159.451ZM270.428 163.873V200.991H261.048V163.873H270.428ZM300.264 163.337C304.686 163.337 308.26 164.744 310.984 167.558C313.709 170.327 315.071 174.213 315.071 179.216V200.991H305.691V180.489C305.691 177.541 304.954 175.285 303.48 173.722C302.006 172.114 299.996 171.31 297.45 171.31C294.86 171.31 292.805 172.114 291.286 173.722C289.812 175.285 289.075 177.541 289.075 180.489V200.991H279.695V163.873H289.075V168.496C290.326 166.888 291.912 165.637 293.832 164.744C295.798 163.806 297.942 163.337 300.264 163.337ZM359.032 163.873V200.991H349.585V196.301C348.379 197.909 346.793 199.182 344.828 200.12C342.907 201.013 340.808 201.46 338.53 201.46C335.627 201.46 333.058 200.857 330.825 199.651C328.592 198.4 326.827 196.591 325.532 194.224C324.281 191.812 323.656 188.953 323.656 185.648V163.873H333.036V184.308C333.036 187.256 333.773 189.534 335.247 191.142C336.721 192.705 338.731 193.487 341.277 193.487C343.868 193.487 345.9 192.705 347.374 191.142C348.848 189.534 349.585 187.256 349.585 184.308V163.873H359.032ZM384.769 201.594C381.196 201.594 377.98 200.812 375.121 199.249C372.262 197.641 370.007 195.385 368.354 192.482C366.746 189.578 365.942 186.228 365.942 182.432C365.942 178.635 366.768 175.285 368.421 172.382C370.118 169.478 372.419 167.245 375.322 165.682C378.225 164.074 381.464 163.27 385.037 163.27C388.61 163.27 391.849 164.074 394.752 165.682C397.655 167.245 399.933 169.478 401.586 172.382C403.283 175.285 404.132 178.635 404.132 182.432C404.132 186.228 403.261 189.578 401.519 192.482C399.822 195.385 397.499 197.641 394.551 199.249C391.648 200.812 388.387 201.594 384.769 201.594ZM384.769 193.42C386.466 193.42 388.052 193.018 389.526 192.214C391.045 191.365 392.251 190.114 393.144 188.462C394.037 186.809 394.484 184.799 394.484 182.432C394.484 178.903 393.546 176.201 391.67 174.325C389.839 172.404 387.583 171.444 384.903 171.444C382.223 171.444 379.967 172.404 378.136 174.325C376.349 176.201 375.456 178.903 375.456 182.432C375.456 185.96 376.327 188.685 378.069 190.606C379.856 192.482 382.089 193.42 384.769 193.42ZM431.582 163.337C436.004 163.337 439.577 164.744 442.302 167.558C445.026 170.327 446.389 174.213 446.389 179.216V200.991H437.009V180.489C437.009 177.541 436.272 175.285 434.798 173.722C433.324 172.114 431.314 171.31 428.768 171.31C426.177 171.31 424.122 172.114 422.604 173.722C421.13 175.285 420.393 177.541 420.393 180.489V200.991H411.013V163.873H420.393V168.496C421.643 166.888 423.229 165.637 425.15 164.744C427.115 163.806 429.259 163.337 431.582 163.337ZM469.513 201.594C466.475 201.594 463.751 201.058 461.339 199.986C458.927 198.869 457.006 197.373 455.577 195.497C454.192 193.621 453.433 191.544 453.299 189.266H462.746C462.924 190.695 463.617 191.879 464.823 192.817C466.073 193.755 467.614 194.224 469.446 194.224C471.232 194.224 472.617 193.866 473.6 193.152C474.627 192.437 475.141 191.521 475.141 190.405C475.141 189.199 474.515 188.305 473.265 187.725C472.059 187.099 470.116 186.429 467.436 185.715C464.666 185.045 462.388 184.352 460.602 183.638C458.86 182.923 457.341 181.829 456.046 180.355C454.795 178.881 454.17 176.893 454.17 174.392C454.17 172.337 454.75 170.461 455.912 168.764C457.118 167.066 458.815 165.726 461.004 164.744C463.237 163.761 465.85 163.27 468.843 163.27C473.265 163.27 476.793 164.386 479.429 166.62C482.064 168.808 483.516 171.779 483.784 175.531H474.806C474.672 174.057 474.046 172.895 472.93 172.047C471.858 171.153 470.406 170.707 468.575 170.707C466.877 170.707 465.56 171.019 464.622 171.645C463.728 172.27 463.282 173.141 463.282 174.258C463.282 175.508 463.907 176.469 465.158 177.139C466.408 177.764 468.351 178.412 470.987 179.082C473.667 179.752 475.878 180.444 477.62 181.159C479.362 181.873 480.858 182.99 482.109 184.509C483.404 185.983 484.074 187.948 484.119 190.405C484.119 192.549 483.516 194.469 482.31 196.167C481.148 197.864 479.451 199.204 477.218 200.187C475.029 201.125 472.461 201.594 469.513 201.594Z" fill="white"/>
<path d="M321.84 226.727C322.693 225.703 323.589 225.617 324.528 226.471C325.552 227.324 325.637 228.263 324.784 229.287C321.029 233.724 317.36 237.521 313.776 240.679V240.807C313.776 240.807 313.733 240.849 313.648 240.935C313.563 241.02 313.477 241.063 313.392 241.063C313.051 241.404 312.837 241.575 312.752 241.575C306.864 246.609 301.915 249.127 297.904 249.127C294.747 249.127 291.845 247.377 289.2 243.879C286.64 240.38 285.36 236.028 285.36 230.823C285.36 227.068 285.872 223.74 286.896 220.839C288.005 217.852 289.413 215.548 291.12 213.927C292.827 212.305 294.576 211.111 296.368 210.343C298.16 209.575 299.952 209.191 301.744 209.191C304.133 209.191 306.096 209.788 307.632 210.983C309.253 212.177 310.064 213.713 310.064 215.591C310.064 215.761 310.064 215.847 310.064 215.847V215.975C310.064 216.06 310.021 216.145 309.936 216.231C309.765 219.132 308.229 221.607 305.328 223.655C302.512 225.617 299.141 227.111 295.216 228.135C295.131 228.988 295.088 229.884 295.088 230.823C295.088 233.98 295.387 236.583 295.984 238.631C296.667 240.679 297.392 242.044 298.16 242.727C298.928 243.409 299.696 243.751 300.464 243.751C303.109 243.751 306.651 241.788 311.088 237.863C311.173 237.777 311.216 237.735 311.216 237.735C314.629 234.748 318.171 231.079 321.84 226.727ZM304.56 215.335C303.536 215.335 302.128 216.06 300.336 217.511C298.544 218.961 297.179 221.009 296.24 223.655C302.555 221.607 305.797 219.047 305.968 215.975C305.968 215.548 305.499 215.335 304.56 215.335ZM363.496 226.215C364.008 225.959 364.52 225.959 365.032 226.215C365.544 226.385 365.885 226.727 366.056 227.239C366.312 227.751 366.312 228.263 366.056 228.775C364.52 232.359 362.429 236.455 359.784 241.063C359.528 241.489 359.272 241.916 359.016 242.343C359.016 242.428 358.931 242.556 358.76 242.727C353.555 251.687 349.331 256.167 346.088 256.167C344.296 256.167 342.845 255.527 341.736 254.247C340.541 252.796 339.816 250.449 339.56 247.207C339.304 243.964 339.304 241.105 339.56 238.631C339.901 236.156 340.413 232.743 341.096 228.391C341.437 225.745 341.693 223.911 341.864 222.887C340.072 225.617 337.469 230.396 334.056 237.223C333.971 237.479 333.843 237.735 333.672 237.991C333.587 238.247 333.459 238.503 333.288 238.759C333.203 239.015 333.16 239.185 333.16 239.271C331.283 243.367 329.704 246.311 328.424 248.103C327.144 249.809 325.779 250.705 324.328 250.791C324.243 250.791 324.115 250.791 323.944 250.791C323.859 250.791 323.773 250.791 323.688 250.791C322.664 250.705 321.683 250.321 320.744 249.639C319.805 248.956 319.165 248.188 318.824 247.335C318.568 246.567 318.653 244.135 319.08 240.039C319.507 235.857 319.933 232.231 320.36 229.159C320.787 226.001 321.085 224.039 321.256 223.271C321.427 222.247 321.939 221.479 322.792 220.967C323.731 220.369 324.84 220.113 326.12 220.199C327.485 220.369 328.637 220.881 329.576 221.735C330.6 222.503 331.112 223.527 331.112 224.807C331.027 226.599 330.472 230.865 329.448 237.607C329.96 236.583 330.6 235.132 331.368 233.255C332.392 230.951 333.16 229.201 333.672 228.007C334.269 226.812 335.037 225.276 335.976 223.399C336.915 221.521 337.683 220.113 338.28 219.175C338.963 218.151 339.731 217.084 340.584 215.975C341.523 214.865 342.419 214.097 343.272 213.671C344.125 213.159 345.021 212.903 345.96 212.903C347.581 212.903 348.904 213.5 349.928 214.695C350.781 215.719 351.293 217.34 351.464 219.559C351.635 221.777 351.592 223.783 351.336 225.575C351.165 227.367 350.824 230.012 350.312 233.511C349.971 235.303 349.715 236.753 349.544 237.863C349.459 238.887 349.331 240.209 349.16 241.831C348.989 243.452 348.947 244.732 349.032 245.671C349.117 246.609 349.331 247.249 349.672 247.591C349.672 247.676 349.757 247.719 349.928 247.719C350.952 247.292 352.787 244.945 355.432 240.679C355.432 240.593 355.475 240.465 355.56 240.295C358.376 235.687 360.68 231.335 362.472 227.239C362.643 226.727 362.984 226.385 363.496 226.215ZM401.939 227.367C402.024 227.623 402.024 227.879 401.939 228.135C401.939 228.391 401.896 228.647 401.811 228.903C401.726 229.073 401.555 229.287 401.299 229.543C401.128 229.713 400.915 229.841 400.659 229.927C400.147 230.097 399.678 230.225 399.251 230.311C392.51 232.7 386.664 235.004 381.715 237.223C384.872 240.551 386.494 244.263 386.579 248.359C386.664 248.444 386.707 248.572 386.707 248.743C386.707 252.156 385 255.484 381.587 258.727C378.174 262.055 374.376 263.719 370.195 263.719C366.44 263.719 363.411 262.865 361.107 261.159C358.803 259.452 357.608 257.148 357.523 254.247C357.523 254.161 357.523 254.076 357.523 253.991C357.523 249.127 361.278 244.305 368.787 239.527C364.179 235.345 361.875 230.951 361.875 226.343C361.875 222.503 363.027 219.345 365.331 216.871C367.72 214.311 370.75 213.031 374.419 213.031C376.638 213.031 378.515 213.5 380.051 214.439C381.672 215.377 382.824 216.529 383.507 217.895C384.275 219.175 384.659 220.583 384.659 222.119C384.659 222.716 384.446 223.228 384.019 223.655C383.678 223.996 383.208 224.167 382.611 224.167C382.099 224.167 381.63 223.996 381.203 223.655C380.862 223.228 380.691 222.716 380.691 222.119C380.691 221.863 380.563 221.521 380.307 221.095C380.051 220.583 379.667 220.156 379.155 219.815C378.643 219.388 378.003 219.175 377.235 219.175C376.296 219.175 375.144 219.729 373.779 220.839C372.499 221.863 371.859 223.228 371.859 224.935C371.859 226.044 372.158 227.153 372.755 228.263C373.438 229.372 374.12 230.268 374.803 230.951C375.486 231.633 376.51 232.572 377.875 233.767C377.96 233.852 378.046 233.937 378.131 234.023C378.302 234.108 378.43 234.193 378.515 234.279C383.635 231.889 390.12 229.329 397.971 226.599C398.056 226.599 398.27 226.556 398.611 226.471C398.952 226.3 399.208 226.172 399.379 226.087C399.891 225.916 400.36 225.959 400.787 226.215C401.299 226.471 401.683 226.855 401.939 227.367ZM366.355 257.063C369.086 257.063 371.432 256.337 373.395 254.887C375.358 253.521 376.339 251.473 376.339 248.743C376.339 246.951 374.888 244.775 371.987 242.215C364.99 246.396 361.491 250.321 361.491 253.991C361.491 254.076 361.491 254.119 361.491 254.119C361.662 256.081 363.283 257.063 366.355 257.063ZM433.59 226.727C434.443 225.703 435.339 225.617 436.278 226.471C437.302 227.324 437.387 228.263 436.534 229.287C432.779 233.724 429.11 237.521 425.526 240.679V240.807C425.526 240.807 425.483 240.849 425.398 240.935C425.313 241.02 425.227 241.063 425.142 241.063C424.801 241.404 424.587 241.575 424.502 241.575C418.614 246.609 413.665 249.127 409.654 249.127C406.497 249.127 403.595 247.377 400.95 243.879C398.39 240.38 397.11 236.028 397.11 230.823C397.11 227.068 397.622 223.74 398.646 220.839C399.755 217.852 401.163 215.548 402.87 213.927C404.577 212.305 406.326 211.111 408.118 210.343C409.91 209.575 411.702 209.191 413.494 209.191C415.883 209.191 417.846 209.788 419.382 210.983C421.003 212.177 421.814 213.713 421.814 215.591C421.814 215.761 421.814 215.847 421.814 215.847V215.975C421.814 216.06 421.771 216.145 421.686 216.231C421.515 219.132 419.979 221.607 417.078 223.655C414.262 225.617 410.891 227.111 406.966 228.135C406.881 228.988 406.838 229.884 406.838 230.823C406.838 233.98 407.137 236.583 407.734 238.631C408.417 240.679 409.142 242.044 409.91 242.727C410.678 243.409 411.446 243.751 412.214 243.751C414.859 243.751 418.401 241.788 422.838 237.863C422.923 237.777 422.966 237.735 422.966 237.735C426.379 234.748 429.921 231.079 433.59 226.727ZM416.31 215.335C415.286 215.335 413.878 216.06 412.086 217.511C410.294 218.961 408.929 221.009 407.99 223.655C414.305 221.607 417.547 219.047 417.718 215.975C417.718 215.548 417.249 215.335 416.31 215.335ZM496.11 226.215C496.622 225.959 497.134 225.959 497.646 226.215C498.158 226.385 498.499 226.727 498.67 227.239C498.926 227.751 498.926 228.263 498.67 228.775C497.134 232.359 495.043 236.455 492.398 241.063C492.142 241.489 491.886 241.916 491.63 242.343V242.471C486.254 251.601 481.945 256.167 478.702 256.167C476.739 256.167 475.161 255.484 473.966 254.119C472.345 252.241 471.491 249.084 471.406 244.647C471.406 240.124 471.79 236.071 472.558 232.487C472.899 229.927 473.113 228.135 473.198 227.111C470.979 229.415 468.889 232.487 466.926 236.327C464.11 241.873 461.891 245.244 460.27 246.439C459.673 246.951 458.99 247.292 458.222 247.463H458.094C458.009 247.463 457.881 247.505 457.71 247.591C457.625 247.591 457.539 247.591 457.454 247.591H457.326C456.131 247.591 455.022 247.207 453.998 246.439C452.974 245.585 452.334 244.476 452.078 243.111C451.054 238.417 451.523 231.804 453.486 223.271C453.913 221.564 454.169 220.369 454.254 219.687C452.718 220.625 450.883 222.844 448.75 226.343C448.665 226.428 448.622 226.471 448.622 226.471C447.257 228.86 445.891 231.377 444.526 234.023C443.246 236.583 442.222 238.801 441.454 240.679C440.686 242.471 440.174 243.836 439.918 244.775V244.903C439.491 246.951 439.107 248.273 438.766 248.871C438.083 250.151 437.017 250.791 435.566 250.791C435.481 250.791 435.395 250.791 435.31 250.791C434.286 250.705 433.305 250.321 432.366 249.639C431.427 248.956 430.787 248.188 430.446 247.335C430.275 246.737 430.275 245.201 430.446 242.727C430.617 240.167 430.915 237.393 431.342 234.407C431.769 231.42 432.11 228.945 432.366 226.983C432.622 224.935 432.793 223.697 432.878 223.271C433.049 222.247 433.561 221.479 434.414 220.967C435.353 220.369 436.462 220.113 437.742 220.199C439.107 220.369 440.259 220.881 441.198 221.735C442.222 222.503 442.734 223.527 442.734 224.807C442.649 225.489 442.435 227.239 442.094 230.055C443.118 228.177 444.142 226.3 445.166 224.423C446.873 221.607 448.494 219.175 450.03 217.127C451.566 214.993 452.803 213.457 453.742 212.519C454.766 211.495 455.747 210.727 456.686 210.215C457.625 209.703 458.265 209.404 458.606 209.319C458.947 209.233 459.331 209.191 459.758 209.191C461.209 209.191 462.361 209.703 463.214 210.727C463.811 211.409 464.153 212.476 464.238 213.927C464.323 215.292 464.238 216.572 463.982 217.767C463.811 218.961 463.47 220.839 462.958 223.399C461.593 230.225 460.953 235.431 461.038 239.015C461.635 237.905 462.403 236.412 463.342 234.535L463.47 234.407C463.47 234.321 463.513 234.236 463.598 234.151C463.683 233.98 463.726 233.852 463.726 233.767C464.75 231.719 465.518 230.183 466.03 229.159C466.627 228.135 467.395 226.855 468.334 225.319C469.358 223.697 470.254 222.503 471.022 221.735C471.875 220.881 472.814 220.156 473.838 219.559C474.862 218.876 475.929 218.535 477.038 218.535C478.745 218.535 480.153 219.132 481.262 220.327C482.457 221.692 483.054 223.911 483.054 226.983C483.054 229.969 482.755 232.999 482.158 236.071C481.219 242.812 481.177 246.652 482.03 247.591C482.115 247.676 482.286 247.719 482.542 247.719C483.566 247.377 485.358 245.073 487.918 240.807C487.918 240.807 487.961 240.764 488.046 240.679C488.131 240.508 488.174 240.38 488.174 240.295C490.99 235.601 493.294 231.249 495.086 227.239C495.257 226.727 495.598 226.385 496.11 226.215ZM539.681 226.215C540.193 226.385 540.577 226.727 540.833 227.239C541.089 227.665 541.089 228.135 540.833 228.647C540.662 229.159 540.321 229.543 539.809 229.799C539.126 230.14 537.804 230.737 535.841 231.591C532.684 232.956 530.209 234.065 528.417 234.919C528.588 235.943 528.673 236.967 528.673 237.991C528.673 239.527 528.502 241.191 528.161 242.983C527.905 244.775 527.521 246.652 527.009 248.615C526.497 250.577 525.772 252.412 524.833 254.119C523.98 255.911 522.998 257.532 521.889 258.983C520.78 260.433 519.414 261.585 517.793 262.439C516.257 263.292 514.593 263.719 512.801 263.719C510.497 263.719 508.662 262.908 507.297 261.287C505.932 259.751 505.164 258.001 504.993 256.039C504.993 255.953 504.993 255.825 504.993 255.655C504.993 255.569 504.993 255.527 504.993 255.527C504.908 255.441 504.865 255.356 504.865 255.271C504.865 248.017 509.516 241.489 518.817 235.687C518.476 228.775 517.238 225.319 515.105 225.319C514.081 225.319 512.886 225.916 511.521 227.111C510.241 228.305 509.132 229.671 508.193 231.207C508.108 231.292 508.065 231.377 508.065 231.463H507.937C506.998 233.084 506.188 234.876 505.505 236.839C504.822 238.716 504.31 240.423 503.969 241.959C503.628 243.409 503.457 244.604 503.457 245.543C503.457 245.713 503.457 245.927 503.457 246.183C503.542 246.353 503.585 246.524 503.585 246.695C503.585 248.743 503.585 250.023 503.585 250.535C503.585 254.204 502.732 256.039 501.025 256.039C500.769 256.039 500.342 255.996 499.745 255.911C499.148 255.825 498.38 255.527 497.441 255.015C496.502 254.503 495.948 253.82 495.777 252.967C494.582 248.615 493.985 240.593 493.985 228.903C493.985 223.271 494.284 217.425 494.881 211.367C495.564 205.308 496.673 199.164 498.209 192.935C499.745 186.62 501.58 181.031 503.713 176.167C505.932 171.303 508.748 167.335 512.161 164.263C515.574 161.105 519.372 159.527 523.553 159.527C526.369 159.527 528.46 161.191 529.825 164.519C531.276 167.761 532.001 171.687 532.001 176.295C532.001 188.924 527.99 200.444 519.969 210.855C515.361 216.913 509.857 221.991 503.457 226.087C503.372 227.964 503.329 229.884 503.329 231.847C503.756 230.908 504.225 230.012 504.737 229.159H504.865C504.865 229.073 504.865 229.031 504.865 229.031C504.95 228.775 505.121 228.476 505.377 228.135C508.961 222.844 513.228 220.199 518.177 220.199C520.225 220.199 522.102 221.223 523.809 223.271C525.516 225.233 526.796 227.751 527.649 230.823C529.27 230.055 531.489 229.073 534.305 227.879C536.182 227.111 537.462 226.556 538.145 226.215C538.657 225.959 539.169 225.959 539.681 226.215ZM511.521 181.671C507.425 191.825 504.822 204.967 503.713 221.095C506.102 219.388 508.364 217.553 510.497 215.591C512.63 213.543 514.764 211.111 516.897 208.295C519.116 205.393 520.993 202.364 522.529 199.207C524.15 196.049 525.473 192.508 526.497 188.583C527.521 184.572 528.033 180.476 528.033 176.295C528.033 173.991 527.734 171.857 527.137 169.895C526.54 167.847 525.729 166.823 524.705 166.823C522.316 166.823 519.969 168.103 517.665 170.663C515.446 173.223 513.398 176.892 511.521 181.671ZM510.113 257.191C511.649 257.191 513.441 255.527 515.489 252.199C517.622 248.785 518.732 244.86 518.817 240.423C512.246 245.031 508.961 249.98 508.961 255.271C508.961 255.271 508.961 255.313 508.961 255.399C508.961 255.399 508.961 255.441 508.961 255.527C509.046 256.636 509.43 257.191 510.113 257.191ZM571.161 174.119C570.99 181.457 568.729 189.649 564.377 198.695C560.11 207.74 554.35 216.316 547.097 224.423C546.926 228.604 546.841 232.999 546.841 237.607C546.841 240.764 546.926 243.58 547.097 246.055C547.353 248.529 547.609 250.364 547.865 251.559C548.121 252.753 548.42 253.735 548.761 254.503C549.102 255.271 549.316 255.697 549.401 255.783C549.572 255.953 549.7 256.039 549.785 256.039C550.553 256.039 551.406 255.484 552.345 254.375C553.369 253.265 554.18 252.199 554.777 251.175C555.374 250.151 556.142 248.615 557.081 246.567C557.252 246.225 557.55 245.713 557.977 245.031V244.903C559.428 241.831 561.348 237.351 563.737 231.463C564.59 229.5 565.188 228.092 565.529 227.239C565.785 226.727 566.169 226.385 566.681 226.215C567.193 226.044 567.662 226.087 568.089 226.343C568.601 226.513 568.942 226.855 569.113 227.367C569.369 227.879 569.412 228.391 569.241 228.903C568.814 229.756 568.217 231.121 567.449 232.999C565.06 238.716 563.097 243.281 561.561 246.695C561.476 246.695 561.433 246.695 561.433 246.695V246.823C561.433 246.908 561.433 246.951 561.433 246.951C555.972 258.3 551.236 263.975 547.225 263.975C545.348 263.975 543.641 262.951 542.105 260.903C540.654 258.855 539.588 256.38 538.905 253.479C538.222 250.492 537.753 247.847 537.497 245.543C537.156 243.239 536.985 241.404 536.985 240.039C536.985 220.924 538.692 204.071 542.105 189.479C546.798 169.511 554.009 159.527 563.737 159.527C566.041 159.527 567.833 160.892 569.113 163.623C570.478 166.353 571.161 169.511 571.161 173.095C571.161 173.436 571.161 173.777 571.161 174.119ZM553.113 184.359C550.297 193.404 548.42 204.583 547.481 217.895C553.369 210.556 558.062 203.004 561.561 195.239C565.145 187.388 567.022 180.348 567.193 174.119C567.193 172.583 567.065 171.217 566.809 170.023C566.553 168.743 566.297 167.889 566.041 167.463C565.785 166.951 565.572 166.695 565.401 166.695C563.268 166.695 561.092 168.273 558.873 171.431C556.74 174.503 554.82 178.812 553.113 184.359ZM601.34 226.727C602.193 225.703 603.089 225.617 604.028 226.471C605.052 227.324 605.137 228.263 604.284 229.287C600.529 233.724 596.86 237.521 593.276 240.679V240.807C593.276 240.807 593.233 240.849 593.148 240.935C593.063 241.02 592.977 241.063 592.892 241.063C592.551 241.404 592.337 241.575 592.252 241.575C586.364 246.609 581.415 249.127 577.404 249.127C574.247 249.127 571.345 247.377 568.7 243.879C566.14 240.38 564.86 236.028 564.86 230.823C564.86 227.068 565.372 223.74 566.396 220.839C567.505 217.852 568.913 215.548 570.62 213.927C572.327 212.305 574.076 211.111 575.868 210.343C577.66 209.575 579.452 209.191 581.244 209.191C583.633 209.191 585.596 209.788 587.132 210.983C588.753 212.177 589.564 213.713 589.564 215.591C589.564 215.761 589.564 215.847 589.564 215.847V215.975C589.564 216.06 589.521 216.145 589.436 216.231C589.265 219.132 587.729 221.607 584.828 223.655C582.012 225.617 578.641 227.111 574.716 228.135C574.631 228.988 574.588 229.884 574.588 230.823C574.588 233.98 574.887 236.583 575.484 238.631C576.167 240.679 576.892 242.044 577.66 242.727C578.428 243.409 579.196 243.751 579.964 243.751C582.609 243.751 586.151 241.788 590.588 237.863C590.673 237.777 590.716 237.735 590.716 237.735C594.129 234.748 597.671 231.079 601.34 226.727ZM584.06 215.335C583.036 215.335 581.628 216.06 579.836 217.511C578.044 218.961 576.679 221.009 575.74 223.655C582.055 221.607 585.297 219.047 585.468 215.975C585.468 215.548 584.999 215.335 584.06 215.335Z" fill="#57BF9A"/>
</svg>
