<svg width="185" height="247" viewBox="0 0 185 247" fill="none" xmlns="http://www.w3.org/2000/svg">
<path d="M56 146.991C91.5 137.991 49 103.991 36 152.491" stroke="#002E3F" stroke-width="6" stroke-linecap="round"/>
<line x1="89.3173" y1="55.2213" x2="56.2308" y2="93.6732" stroke="#002E3F" stroke-width="6" stroke-linecap="round"/>
<line x1="144.178" y1="87.7278" x2="175.737" y2="132.812" stroke="#002E3F" stroke-width="6" stroke-linecap="round"/>
<line x1="126.186" y1="86.6814" x2="165.691" y2="141.805" stroke="#002E3F" stroke-width="6" stroke-linecap="round"/>
<line x1="155.295" y1="150.758" x2="173.768" y2="134.695" stroke="#002E3F" stroke-width="6" stroke-linecap="round"/>
<line x1="154.866" y1="150.037" x2="138.046" y2="123.125" stroke="#002E3F" stroke-width="6" stroke-linecap="round"/>
<line x1="133.676" y1="150.354" x2="128.364" y2="104.315" stroke="#002E3F" stroke-width="6" stroke-linecap="round"/>
<line x1="88.242" y1="125.755" x2="120.764" y2="96.7485" stroke="#002E3F" stroke-width="6" stroke-linecap="round"/>
<line x1="87.83" y1="126.209" x2="78.2181" y2="112.161" stroke="#002E3F" stroke-width="6" stroke-linecap="round"/>
<line x1="172.51" y1="37.2048" x2="129.214" y2="71.4806" stroke="#002E3F" stroke-width="6" stroke-linecap="round"/>
<line x1="120.379" y1="79.1875" x2="77.0117" y2="111.375" stroke="#002E3F" stroke-width="6" stroke-linecap="round"/>
<line x1="66.2093" y1="10.5211" x2="114.531" y2="72.7812" stroke="#002E3F" stroke-width="6" stroke-linecap="round"/>
<line x1="52.9901" y1="18.865" x2="78.8745" y2="3.00042" stroke="#002E3F" stroke-width="6" stroke-linecap="round"/>
<line x1="79.1964" y1="3.61553" x2="115.625" y2="52.7942" stroke="#002E3F" stroke-width="6" stroke-linecap="round"/>
<line x1="166.531" y1="23.2072" x2="126.217" y2="55.4591" stroke="#002E3F" stroke-width="6" stroke-linecap="round"/>
<line x1="167.16" y1="23.8226" x2="181.832" y2="45.8303" stroke="#002E3F" stroke-width="6" stroke-linecap="round"/>
<line x1="181.666" y1="46.22" x2="145.229" y2="77.3244" stroke="#002E3F" stroke-width="6" stroke-linecap="round"/>
<line x1="53.2118" y1="19.5011" x2="78.5105" y2="51.7787" stroke="#002E3F" stroke-width="6" stroke-linecap="round"/>
<ellipse cx="123.476" cy="76.7813" rx="4.07" ry="5.54" transform="rotate(-34.0884 123.476 76.7813)" fill="#002E3F"/>
<path d="M92 89.9905C72 88.9905 44 91.9905 54 106.491" stroke="#002E3F" stroke-width="6" stroke-linecap="round"/>
<path d="M21.5 157.991C31.6526 157.991 40 166.432 40 176.991C40 187.549 31.6526 195.991 21.5 195.991C11.3474 195.991 3 187.549 3 176.991C3 166.432 11.3474 157.991 21.5 157.991Z" stroke="#002E3F" stroke-width="6"/>
<path d="M45.5 191.491C54.2741 191.491 61.5 198.815 61.5 207.991C61.5 217.167 54.2741 224.491 45.5 224.491C36.7259 224.491 29.5 217.167 29.5 207.991C29.5 198.815 36.7259 191.491 45.5 191.491Z" stroke="#002E3F" stroke-width="5"/>
<path d="M76.5 186.491C83.6055 186.491 89.5 192.459 89.5 199.991C89.5 207.522 83.6055 213.491 76.5 213.491C69.3945 213.491 63.5 207.522 63.5 199.991C63.5 192.459 69.3945 186.491 76.5 186.491Z" stroke="#002E3F" stroke-width="5"/>
<path d="M70.5 217.491C77.6055 217.491 83.5 223.459 83.5 230.991C83.5 238.522 77.6055 244.491 70.5 244.491C63.3945 244.491 57.5 238.522 57.5 230.991C57.5 223.459 63.3945 217.491 70.5 217.491Z" stroke="#002E3F" stroke-width="5"/>
<path d="M57 148.991C68.0457 148.991 77 158.169 77 169.491C77 180.812 68.0457 189.991 57 189.991C51.3932 189.991 46.3267 187.624 42.6953 183.815L48.2148 182.051C50.6984 183.906 53.7428 184.991 57 184.991C65.1686 184.991 72 178.168 72 169.491C72 160.813 65.1686 153.991 57 153.991C51.2631 153.991 46.1845 157.355 43.6699 162.365L38.168 162.574C40.9365 154.655 48.3225 148.991 57 148.991Z" fill="#002E3F"/>
<path d="M80.7363 177.754C82.511 178.551 84.463 178.991 86.5 178.991C88.0968 178.991 89.641 178.72 91.0889 178.219C91.2235 179.93 91.5111 181.595 91.9385 183.201C90.2121 183.714 88.3877 183.991 86.5 183.991C81.8335 183.991 77.5507 182.308 74.1943 179.504L80.7363 177.754ZM86.5 143.991C93.4203 143.991 99.498 147.688 102.959 153.262C101.557 154.198 100.246 155.27 99.0459 156.46C96.5154 151.964 91.7964 148.991 86.5 148.991C82.7284 148.991 79.25 150.499 76.6455 152.991H70.2129C73.701 147.569 79.6927 143.991 86.5 143.991Z" fill="#002E3F"/>
<path d="M86.9287 143.991C97.4614 143.991 106 152.945 106 163.991C106 175.036 97.4614 183.99 86.9287 183.991C82.3811 183.991 78.2068 182.32 74.9297 179.534L83.1328 177.381C84.3452 177.778 85.6221 177.991 86.9287 177.991C93.8821 177.99 100 171.994 100 163.991C100 155.987 93.8821 149.991 86.9287 149.991C83.9439 149.991 81.1136 151.096 78.8545 152.991H71C74.4114 147.569 80.2712 143.991 86.9287 143.991Z" fill="#002E3F"/>
</svg>
